STARTFONT 2.1
COMMENT
COMMENT Converted from OpenType font "draco.ttf" by "otf2bdf 3.0".
COMMENT
FONT -FreeType-Erbos Draco 1st NBP-Medium-R-Normal--15-110-100-100-P-75-ISO10646-1
SIZE 11 100 100
FONTBOUNDINGBOX 7 9 0 0
STARTPROPERTIES 19
FOUNDRY "FreeType"
FAMILY_NAME "Erbos Draco 1st NBP"
WEIGHT_NAME "Medium"
SLANT "R"
SETWIDTH_NAME "Normal"
ADD_STYLE_NAME ""
PIXEL_SIZE 15
POINT_SIZE 110
RESOLUTION_X 100
RESOLUTION_Y 100
SPACING "P"
AVERAGE_WIDTH 75
CHARSET_REGISTRY "ISO10646"
CHARSET_ENCODING "1"
FONT_ASCENT 8
FONT_DESCENT 0
COPYRIGHT "Copyright Nate Halley 2012"
_OTF_FONTFILE "draco.ttf"
_OTF_PSNAME "Erbos-Draco-1st-NBP"
ENDPROPERTIES
CHARS 99
STARTCHAR 0020
ENCODING 32
SWIDTH 458 0
DWIDTH 7 0
BBX 7 9 0 0
BITMAP
FE
FE
FE
FE
FE
FE
FE
FE
FE
ENDCHAR
STARTCHAR 0021
ENCODING 33
SWIDTH 458 0
DWIDTH 7 0
BBX 7 9 0 0
BITMAP
FE
EE
FE
FE
FE
FE
FE
EE
FE
ENDCHAR
STARTCHAR 0022
ENCODING 34
SWIDTH 458 0
DWIDTH 7 0
BBX 7 9 0 0
BITMAP
FE
D6
FE
FE
FE
FE
FE
FE
FE
ENDCHAR
STARTCHAR 0023
ENCODING 35
SWIDTH 458 0
DWIDTH 7 0
BBX 7 9 0 0
BITMAP
FE
FE
D6
FE
FE
FE
FE
FE
FE
ENDCHAR
STARTCHAR 0024
ENCODING 36
SWIDTH 458 0
DWIDTH 7 0
BBX 7 9 0 0
BITMAP
FE
EE
FE
FE
FE
FE
FE
FE
FE
ENDCHAR
STARTCHAR 0025
ENCODING 37
SWIDTH 458 0
DWIDTH 7 0
BBX 7 9 0 0
BITMAP
FE
FE
DC
FE
EE
D4
FE
FE
FE
ENDCHAR
STARTCHAR 0026
ENCODING 38
SWIDTH 458 0
DWIDTH 7 0
BBX 7 9 0 0
BITMAP
FE
EE
D6
FE
DE
AE
F6
EC
FE
ENDCHAR
STARTCHAR 0027
ENCODING 39
SWIDTH 458 0
DWIDTH 7 0
BBX 7 9 0 0
BITMAP
FE
EE
FE
FE
FE
FE
FE
FE
FE
ENDCHAR
STARTCHAR 0028
ENCODING 40
SWIDTH 458 0
DWIDTH 7 0
BBX 7 9 0 0
BITMAP
FE
FC
F6
EE
FE
FE
F6
FC
FE
ENDCHAR
STARTCHAR 0029
ENCODING 41
SWIDTH 458 0
DWIDTH 7 0
BBX 7 9 0 0
BITMAP
FE
BE
DE
EE
FE
FE
DE
BE
FE
ENDCHAR
STARTCHAR 002A
ENCODING 42
SWIDTH 458 0
DWIDTH 7 0
BBX 7 9 0 0
BITMAP
FE
EE
FE
FE
FE
FE
FE
FE
FE
ENDCHAR
STARTCHAR 002B
ENCODING 43
SWIDTH 458 0
DWIDTH 7 0
BBX 7 9 0 0
BITMAP
FE
FE
EE
FE
FE
FE
FE
FE
FE
ENDCHAR
STARTCHAR 002C
ENCODING 44
SWIDTH 458 0
DWIDTH 7 0
BBX 7 9 0 0
BITMAP
FE
FE
FE
FE
FE
DE
FE
BE
FE
ENDCHAR
STARTCHAR 002D
ENCODING 45
SWIDTH 458 0
DWIDTH 7 0
BBX 7 9 0 0
BITMAP
FE
FE
FE
FE
F4
FE
FE
FE
FE
ENDCHAR
STARTCHAR 002E
ENCODING 46
SWIDTH 458 0
DWIDTH 7 0
BBX 7 9 0 0
BITMAP
FE
FE
FE
FE
FE
FE
DE
FE
FE
ENDCHAR
STARTCHAR 002F
ENCODING 47
SWIDTH 458 0
DWIDTH 7 0
BBX 7 9 0 0
BITMAP
FE
FE
FC
F6
EE
DE
BE
FE
FE
ENDCHAR
STARTCHAR 0030
ENCODING 48
SWIDTH 458 0
DWIDTH 7 0
BBX 7 9 0 0
BITMAP
FE
F6
BC
FE
FE
FE
BC
F6
FE
ENDCHAR
STARTCHAR 0031
ENCODING 49
SWIDTH 458 0
DWIDTH 7 0
BBX 7 9 0 0
BITMAP
FE
EE
FE
FE
FE
FE
FE
FE
FE
ENDCHAR
STARTCHAR 0032
ENCODING 50
SWIDTH 458 0
DWIDTH 7 0
BBX 7 9 0 0
BITMAP
FE
F6
BC
FC
F6
DE
BE
FE
FE
ENDCHAR
STARTCHAR 0033
ENCODING 51
SWIDTH 458 0
DWIDTH 7 0
BBX 7 9 0 0
BITMAP
FE
F6
BC
FE
F6
FC
FE
F6
FE
ENDCHAR
STARTCHAR 0034
ENCODING 52
SWIDTH 458 0
DWIDTH 7 0
BBX 7 9 0 0
BITMAP
FE
F6
FE
FE
FE
FE
FE
FE
FE
ENDCHAR
STARTCHAR 0035
ENCODING 53
SWIDTH 458 0
DWIDTH 7 0
BBX 7 9 0 0
BITMAP
FE
F4
BE
FE
FE
FC
FE
F6
FE
ENDCHAR
STARTCHAR 0036
ENCODING 54
SWIDTH 458 0
DWIDTH 7 0
BBX 7 9 0 0
BITMAP
FE
F6
BC
FE
FE
BC
FE
F6
FE
ENDCHAR
STARTCHAR 0037
ENCODING 55
SWIDTH 458 0
DWIDTH 7 0
BBX 7 9 0 0
BITMAP
FE
F4
BC
FE
F6
EE
FE
FE
FE
ENDCHAR
STARTCHAR 0038
ENCODING 56
SWIDTH 458 0
DWIDTH 7 0
BBX 7 9 0 0
BITMAP
FE
F6
BC
FE
F6
BC
FE
F6
FE
ENDCHAR
STARTCHAR 0039
ENCODING 57
SWIDTH 458 0
DWIDTH 7 0
BBX 7 9 0 0
BITMAP
FE
F6
BC
FE
FE
FC
FE
F6
FE
ENDCHAR
STARTCHAR 003A
ENCODING 58
SWIDTH 458 0
DWIDTH 7 0
BBX 7 9 0 0
BITMAP
FE
FE
EE
FE
FE
FE
EE
FE
FE
ENDCHAR
STARTCHAR 003B
ENCODING 59
SWIDTH 458 0
DWIDTH 7 0
BBX 7 9 0 0
BITMAP
FE
FE
EE
FE
FE
EE
FE
DE
FE
ENDCHAR
STARTCHAR 003C
ENCODING 60
SWIDTH 458 0
DWIDTH 7 0
BBX 7 9 0 0
BITMAP
FE
FC
F6
EE
DE
EE
F6
FC
FE
ENDCHAR
STARTCHAR 003D
ENCODING 61
SWIDTH 458 0
DWIDTH 7 0
BBX 7 9 0 0
BITMAP
FE
FE
FE
F4
FE
FE
F4
FE
FE
ENDCHAR
STARTCHAR 003E
ENCODING 62
SWIDTH 458 0
DWIDTH 7 0
BBX 7 9 0 0
BITMAP
FE
BE
DE
EE
F6
EE
DE
BE
FE
ENDCHAR
STARTCHAR 003F
ENCODING 63
SWIDTH 458 0
DWIDTH 7 0
BBX 7 9 0 0
BITMAP
FE
F6
BC
FE
F6
FE
FE
EE
FE
ENDCHAR
STARTCHAR 0040
ENCODING 64
SWIDTH 458 0
DWIDTH 7 0
BBX 7 9 0 0
BITMAP
FE
F6
BC
FE
FE
FE
BE
F4
FE
ENDCHAR
STARTCHAR 0041
ENCODING 65
SWIDTH 458 0
DWIDTH 7 0
BBX 7 9 0 0
BITMAP
FE
EE
D6
BC
FE
FE
FE
FE
FE
ENDCHAR
STARTCHAR 0042
ENCODING 66
SWIDTH 458 0
DWIDTH 7 0
BBX 7 9 0 0
BITMAP
FE
F6
FE
FE
FE
FE
FE
FE
FE
ENDCHAR
STARTCHAR 0043
ENCODING 67
SWIDTH 458 0
DWIDTH 7 0
BBX 7 9 0 0
BITMAP
FE
F6
BC
FE
FE
FE
FE
F6
FE
ENDCHAR
STARTCHAR 0044
ENCODING 68
SWIDTH 458 0
DWIDTH 7 0
BBX 7 9 0 0
BITMAP
FE
EE
FE
FE
FE
FE
FE
FE
FE
ENDCHAR
STARTCHAR 0045
ENCODING 69
SWIDTH 458 0
DWIDTH 7 0
BBX 7 9 0 0
BITMAP
FE
F4
FE
FE
FE
FE
FE
FE
FE
ENDCHAR
STARTCHAR 0046
ENCODING 70
SWIDTH 458 0
DWIDTH 7 0
BBX 7 9 0 0
BITMAP
FE
F4
FE
FE
FE
FE
FE
FE
FE
ENDCHAR
STARTCHAR 0047
ENCODING 71
SWIDTH 458 0
DWIDTH 7 0
BBX 7 9 0 0
BITMAP
FE
F6
BC
FE
FE
FE
FE
FE
FE
ENDCHAR
STARTCHAR 0048
ENCODING 72
SWIDTH 458 0
DWIDTH 7 0
BBX 7 9 0 0
BITMAP
FE
BC
FE
FE
FE
FE
FE
FE
FE
ENDCHAR
STARTCHAR 0049
ENCODING 73
SWIDTH 458 0
DWIDTH 7 0
BBX 7 9 0 0
BITMAP
FE
F6
FE
FE
FE
FE
FE
FE
FE
ENDCHAR
STARTCHAR 004A
ENCODING 74
SWIDTH 458 0
DWIDTH 7 0
BBX 7 9 0 0
BITMAP
FE
FC
FE
FE
FE
FE
FE
F6
FE
ENDCHAR
STARTCHAR 004B
ENCODING 75
SWIDTH 458 0
DWIDTH 7 0
BBX 7 9 0 0
BITMAP
FE
BC
FE
FE
FE
FE
FE
FE
FE
ENDCHAR
STARTCHAR 004C
ENCODING 76
SWIDTH 458 0
DWIDTH 7 0
BBX 7 9 0 0
BITMAP
FE
BE
FE
FE
FE
FE
FE
FE
FE
ENDCHAR
STARTCHAR 004D
ENCODING 77
SWIDTH 458 0
DWIDTH 7 0
BBX 7 9 0 0
BITMAP
FE
BC
FE
FE
FE
FE
FE
FE
FE
ENDCHAR
STARTCHAR 004E
ENCODING 78
SWIDTH 458 0
DWIDTH 7 0
BBX 7 9 0 0
BITMAP
FE
BC
FE
FE
FE
FE
FE
FE
FE
ENDCHAR
STARTCHAR 004F
ENCODING 79
SWIDTH 458 0
DWIDTH 7 0
BBX 7 9 0 0
BITMAP
FE
F6
BC
FE
FE
FE
FE
F6
FE
ENDCHAR
STARTCHAR 0050
ENCODING 80
SWIDTH 458 0
DWIDTH 7 0
BBX 7 9 0 0
BITMAP
FE
F6
FE
FE
FE
FE
FE
FE
FE
ENDCHAR
STARTCHAR 0051
ENCODING 81
SWIDTH 458 0
DWIDTH 7 0
BBX 7 9 0 0
BITMAP
FE
F6
BC
FE
FE
FE
FE
FE
FE
ENDCHAR
STARTCHAR 0052
ENCODING 82
SWIDTH 458 0
DWIDTH 7 0
BBX 7 9 0 0
BITMAP
FE
F6
FE
FE
FE
FE
FE
FE
FE
ENDCHAR
STARTCHAR 0053
ENCODING 83
SWIDTH 458 0
DWIDTH 7 0
BBX 7 9 0 0
BITMAP
FE
F6
BC
FE
F6
FC
FE
F6
FE
ENDCHAR
STARTCHAR 0054
ENCODING 84
SWIDTH 458 0
DWIDTH 7 0
BBX 7 9 0 0
BITMAP
FE
F4
FE
FE
FE
FE
FE
FE
FE
ENDCHAR
STARTCHAR 0055
ENCODING 85
SWIDTH 458 0
DWIDTH 7 0
BBX 7 9 0 0
BITMAP
FE
BC
FE
FE
FE
FE
FE
F6
FE
ENDCHAR
STARTCHAR 0056
ENCODING 86
SWIDTH 458 0
DWIDTH 7 0
BBX 7 9 0 0
BITMAP
FE
BC
FE
FE
FE
FE
D6
EE
FE
ENDCHAR
STARTCHAR 0057
ENCODING 87
SWIDTH 458 0
DWIDTH 7 0
BBX 7 9 0 0
BITMAP
FE
BC
FE
FE
FE
FE
FE
FE
FE
ENDCHAR
STARTCHAR 0058
ENCODING 88
SWIDTH 458 0
DWIDTH 7 0
BBX 7 9 0 0
BITMAP
FE
BC
FE
D6
EE
D6
BC
FE
FE
ENDCHAR
STARTCHAR 0059
ENCODING 89
SWIDTH 458 0
DWIDTH 7 0
BBX 7 9 0 0
BITMAP
FE
BC
FE
FE
FE
FE
FE
FE
FE
ENDCHAR
STARTCHAR 005A
ENCODING 90
SWIDTH 458 0
DWIDTH 7 0
BBX 7 9 0 0
BITMAP
FE
F4
FC
F6
EE
DE
BE
FE
FE
ENDCHAR
STARTCHAR 005B
ENCODING 91
SWIDTH 458 0
DWIDTH 7 0
BBX 7 9 0 0
BITMAP
FE
F4
FE
FE
FE
FE
FE
FE
FE
ENDCHAR
STARTCHAR 005C
ENCODING 92
SWIDTH 458 0
DWIDTH 7 0
BBX 7 9 0 0
BITMAP
FE
FE
BE
DE
EE
F6
FC
FE
FE
ENDCHAR
STARTCHAR 005D
ENCODING 93
SWIDTH 458 0
DWIDTH 7 0
BBX 7 9 0 0
BITMAP
FE
EE
FE
FE
FE
FE
FE
FE
FE
ENDCHAR
STARTCHAR 005E
ENCODING 94
SWIDTH 458 0
DWIDTH 7 0
BBX 7 9 0 0
BITMAP
FE
EE
D6
BC
FE
FE
FE
FE
FE
ENDCHAR
STARTCHAR 005F
ENCODING 95
SWIDTH 458 0
DWIDTH 7 0
BBX 7 9 0 0
BITMAP
FE
FE
FE
FE
FE
FE
FE
F4
FE
ENDCHAR
STARTCHAR 0060
ENCODING 96
SWIDTH 458 0
DWIDTH 7 0
BBX 7 9 0 0
BITMAP
FE
DE
EE
FE
FE
FE
FE
FE
FE
ENDCHAR
STARTCHAR 0061
ENCODING 97
SWIDTH 458 0
DWIDTH 7 0
BBX 7 9 0 0
BITMAP
FE
FE
FE
F6
FC
FE
FE
FE
FE
ENDCHAR
STARTCHAR 0062
ENCODING 98
SWIDTH 458 0
DWIDTH 7 0
BBX 7 9 0 0
BITMAP
FE
BE
FE
FE
FE
FE
FE
FE
FE
ENDCHAR
STARTCHAR 0063
ENCODING 99
SWIDTH 458 0
DWIDTH 7 0
BBX 7 9 0 0
BITMAP
FE
FE
FE
F6
BC
FE
FE
F6
FE
ENDCHAR
STARTCHAR 0064
ENCODING 100
SWIDTH 458 0
DWIDTH 7 0
BBX 7 9 0 0
BITMAP
FE
FC
FE
FE
FE
FE
FE
FE
FE
ENDCHAR
STARTCHAR 0065
ENCODING 101
SWIDTH 458 0
DWIDTH 7 0
BBX 7 9 0 0
BITMAP
FE
FE
FE
F6
BC
FE
BE
F6
FE
ENDCHAR
STARTCHAR 0066
ENCODING 102
SWIDTH 458 0
DWIDTH 7 0
BBX 7 9 0 0
BITMAP
FE
F6
DC
FE
FE
FE
FE
FE
FE
ENDCHAR
STARTCHAR 0067
ENCODING 103
SWIDTH 458 0
DWIDTH 7 0
BBX 7 9 0 0
BITMAP
FE
FE
FE
F6
BC
FE
FC
F6
FE
ENDCHAR
STARTCHAR 0068
ENCODING 104
SWIDTH 458 0
DWIDTH 7 0
BBX 7 9 0 0
BITMAP
FE
BE
FE
FE
FE
FE
FE
FE
FE
ENDCHAR
STARTCHAR 0069
ENCODING 105
SWIDTH 458 0
DWIDTH 7 0
BBX 7 9 0 0
BITMAP
FE
FE
EE
FE
EE
FE
FE
FE
FE
ENDCHAR
STARTCHAR 006A
ENCODING 106
SWIDTH 458 0
DWIDTH 7 0
BBX 7 9 0 0
BITMAP
FE
FC
FE
F4
FC
FE
FE
F6
FE
ENDCHAR
STARTCHAR 006B
ENCODING 107
SWIDTH 458 0
DWIDTH 7 0
BBX 7 9 0 0
BITMAP
FE
BE
FE
FE
FE
FE
FE
FE
FE
ENDCHAR
STARTCHAR 006C
ENCODING 108
SWIDTH 458 0
DWIDTH 7 0
BBX 7 9 0 0
BITMAP
FE
DE
FE
FE
FE
FE
FE
F6
FE
ENDCHAR
STARTCHAR 006D
ENCODING 109
SWIDTH 458 0
DWIDTH 7 0
BBX 7 9 0 0
BITMAP
FE
FE
FE
D6
FE
FE
FE
FE
FE
ENDCHAR
STARTCHAR 006E
ENCODING 110
SWIDTH 458 0
DWIDTH 7 0
BBX 7 9 0 0
BITMAP
FE
FE
FE
F6
FE
FE
FE
FE
FE
ENDCHAR
STARTCHAR 006F
ENCODING 111
SWIDTH 458 0
DWIDTH 7 0
BBX 7 9 0 0
BITMAP
FE
FE
FE
F6
BC
FE
FE
F6
FE
ENDCHAR
STARTCHAR 0070
ENCODING 112
SWIDTH 458 0
DWIDTH 7 0
BBX 7 9 0 0
BITMAP
FE
FE
FE
F6
FE
FE
FE
FE
FE
ENDCHAR
STARTCHAR 0071
ENCODING 113
SWIDTH 458 0
DWIDTH 7 0
BBX 7 9 0 0
BITMAP
FE
FE
FE
F6
FE
FE
FE
FE
FE
ENDCHAR
STARTCHAR 0072
ENCODING 114
SWIDTH 458 0
DWIDTH 7 0
BBX 7 9 0 0
BITMAP
FE
FE
FE
F6
FE
FE
FE
FE
FE
ENDCHAR
STARTCHAR 0073
ENCODING 115
SWIDTH 458 0
DWIDTH 7 0
BBX 7 9 0 0
BITMAP
FE
FE
FE
F4
BE
F6
FC
F6
FE
ENDCHAR
STARTCHAR 0074
ENCODING 116
SWIDTH 458 0
DWIDTH 7 0
BBX 7 9 0 0
BITMAP
FE
EE
FE
FE
FE
FE
FE
FE
FE
ENDCHAR
STARTCHAR 0075
ENCODING 117
SWIDTH 458 0
DWIDTH 7 0
BBX 7 9 0 0
BITMAP
FE
FE
FE
BC
FE
FE
FE
FE
FE
ENDCHAR
STARTCHAR 0076
ENCODING 118
SWIDTH 458 0
DWIDTH 7 0
BBX 7 9 0 0
BITMAP
FE
FE
FE
BC
FE
FE
D6
EE
FE
ENDCHAR
STARTCHAR 0077
ENCODING 119
SWIDTH 458 0
DWIDTH 7 0
BBX 7 9 0 0
BITMAP
FE
FE
FE
BC
FE
FE
FE
FE
FE
ENDCHAR
STARTCHAR 0078
ENCODING 120
SWIDTH 458 0
DWIDTH 7 0
BBX 7 9 0 0
BITMAP
FE
FE
FE
BC
D6
EE
D6
BC
FE
ENDCHAR
STARTCHAR 0079
ENCODING 121
SWIDTH 458 0
DWIDTH 7 0
BBX 7 9 0 0
BITMAP
FE
FE
FE
BC
FE
FE
FC
F6
FE
ENDCHAR
STARTCHAR 007A
ENCODING 122
SWIDTH 458 0
DWIDTH 7 0
BBX 7 9 0 0
BITMAP
FE
FE
FE
F4
FE
EE
DE
FE
FE
ENDCHAR
STARTCHAR 007B
ENCODING 123
SWIDTH 458 0
DWIDTH 7 0
BBX 7 9 0 0
BITMAP
FE
FC
F6
FE
EE
F6
FE
FC
FE
ENDCHAR
STARTCHAR 007C
ENCODING 124
SWIDTH 458 0
DWIDTH 7 0
BBX 7 9 0 0
BITMAP
FE
FE
EE
FE
FE
FE
FE
FE
FE
ENDCHAR
STARTCHAR 007D
ENCODING 125
SWIDTH 458 0
DWIDTH 7 0
BBX 7 9 0 0
BITMAP
FE
BE
DE
FE
EE
DE
FE
BE
FE
ENDCHAR
STARTCHAR 007E
ENCODING 126
SWIDTH 458 0
DWIDTH 7 0
BBX 7 9 0 0
BITMAP
FE
FE
FE
DE
AC
F6
FE
FE
FE
ENDCHAR
STARTCHAR 2018
ENCODING 8216
SWIDTH 458 0
DWIDTH 7 0
BBX 7 9 0 0
BITMAP
FE
FC
FE
FE
FE
FE
FE
FE
FE
ENDCHAR
STARTCHAR 2019
ENCODING 8217
SWIDTH 458 0
DWIDTH 7 0
BBX 7 9 0 0
BITMAP
FE
BE
FE
FE
FE
FE
FE
FE
FE
ENDCHAR
STARTCHAR 201C
ENCODING 8220
SWIDTH 458 0
DWIDTH 7 0
BBX 7 9 0 0
BITMAP
FE
EC
FE
FE
FE
FE
FE
FE
FE
ENDCHAR
STARTCHAR 201D
ENCODING 8221
SWIDTH 458 0
DWIDTH 7 0
BBX 7 9 0 0
BITMAP
FE
AE
FE
FE
FE
FE
FE
FE
FE
ENDCHAR
ENDFONT
